<?xml version="1.0" standalone="no"?>
<!DOCTYPE svg PUBLIC "-//W3C//DTD SVG 20010904//EN"
 "http://www.w3.org/TR/2001/REC-SVG-20010904/DTD/svg10.dtd">
<svg version="1.0" xmlns="http://www.w3.org/2000/svg"
 width="225.000000pt" height="225.000000pt" viewBox="0 0 225.000000 225.000000"
 preserveAspectRatio="xMidYMid meet">

<g transform="translate(0.000000,225.000000) scale(0.100000,-0.100000)"
fill="#000000" stroke="none">
<path d="M305 1530 c-3 -11 -11 -20 -16 -20 -5 0 -9 -8 -9 -17 0 -11 3 -14 8
-7 11 16 41 24 48 12 4 -7 10 -6 16 3 8 11 9 11 5 -1 -2 -9 -14 -14 -26 -13
-13 2 -20 -1 -16 -7 3 -6 1 -10 -4 -10 -6 0 -11 -13 -11 -30 0 -16 -4 -30 -9
-30 -6 0 -8 9 -6 20 2 11 0 20 -6 20 -5 0 -9 7 -9 16 0 8 -4 13 -9 10 -4 -3
-16 3 -26 14 -21 23 -40 26 -32 6 3 -8 1 -17 -6 -20 -7 -3 -2 -3 11 0 12 3 22
1 22 -5 0 -6 -5 -11 -12 -11 -6 0 -3 -7 8 -15 28 -21 -4 -20 -35 1 -21 15 -22
15 -20 -2 2 -11 0 -25 -5 -33 -7 -11 -4 -13 11 -9 15 4 20 1 19 -11 -2 -24
-24 -44 -42 -37 -12 4 -14 1 -9 -14 5 -17 2 -20 -24 -20 -26 0 -30 -3 -29 -24
1 -14 7 -22 14 -19 7 2 15 0 19 -6 3 -6 2 -11 -3 -11 -5 0 -8 -20 -8 -45 1
-31 5 -44 13 -41 7 3 19 -4 27 -15 12 -18 17 -19 36 -9 20 11 20 13 6 29 -19
20 -20 31 -5 31 5 0 8 -4 5 -9 -3 -5 1 -14 9 -21 8 -7 12 -17 8 -23 -4 -6 -1
-8 8 -5 8 3 22 9 32 13 12 5 17 2 17 -9 0 -10 9 -16 25 -16 14 0 25 4 25 9 0
13 -26 32 -33 24 -4 -3 -7 -1 -7 6 0 8 7 11 15 7 9 -3 18 1 21 9 9 21 22 19
29 -6 5 -15 13 -19 27 -16 11 3 21 0 25 -9 3 -9 10 -11 22 -5 19 11 116 9 127
-2 12 -12 22 -8 29 13 4 13 15 20 30 20 13 0 27 5 30 10 4 6 -8 10 -28 10 -22
0 -37 -6 -41 -15 -7 -19 -16 -19 -45 4 l-24 18 23 6 c16 4 20 2 16 -9 -3 -8 1
-14 10 -14 8 0 13 4 10 8 -2 4 0 14 5 22 8 12 12 12 16 3 7 -19 54 -16 69 5
18 23 17 35 -1 28 -20 -7 -20 23 2 53 16 24 16 24 -11 19 -23 -5 -26 -3 -20
15 5 15 3 19 -8 15 -8 -4 -14 1 -14 12 0 10 6 16 13 13 7 -3 13 0 13 6 0 6 -5
11 -11 11 -5 0 -7 4 -4 10 3 6 -1 7 -9 4 -21 -8 -20 6 2 22 16 11 14 13 -13
24 -16 6 -31 11 -33 10 -1 0 -10 6 -18 15 -19 19 -54 20 -54 1 0 -13 -68 -31
-79 -21 -2 3 3 5 12 5 9 0 17 5 17 11 0 5 5 7 10 4 6 -3 10 -2 10 4 0 5 3 16
6 25 4 12 0 16 -15 16 -12 0 -21 -6 -21 -12 0 -10 -2 -10 -8 -2 -4 7 -20 10
-36 9 -17 -2 -38 1 -47 6 -14 7 -19 4 -24 -11z m163 -102 c17 -2 3 -14 -28
-23 -22 -7 -23 -6 -11 9 12 14 12 16 -2 11 -8 -4 -18 -1 -22 6 -6 9 0 10 21 5
16 -4 35 -7 42 -8z m89 -25 c-9 -9 -19 -14 -23 -11 -10 10 6 28 24 28 15 0 15
-1 -1 -17z m-300 -15 c-3 -8 -6 -5 -6 6 -1 11 2 17 5 13 3 -3 4 -12 1 -19z
m117 6 c3 -8 2 -12 -3 -9 -5 3 -12 1 -16 -5 -3 -5 1 -10 9 -10 9 0 16 -8 15
-17 0 -11 -3 -13 -6 -5 -2 6 -9 9 -15 6 -19 -12 -28 20 -11 38 20 22 19 22 27
2z m76 -8 c0 -2 -6 -9 -13 -15 -10 -8 -14 -7 -14 4 0 8 6 15 14 15 7 0 13 -2
13 -4z m74 -28 c-5 -8 -2 -9 10 -5 10 4 15 3 11 -3 -7 -12 -36 -13 -62 -3 -16
6 -15 8 7 14 37 10 42 10 34 -3z m-164 -44 c0 -8 -5 -12 -10 -9 -6 4 -8 11 -5
16 9 14 15 11 15 -7z m157 1 c0 -8 -4 -12 -9 -9 -5 3 -6 10 -3 15 9 13 12 11
12 -6z m30 -17 c-3 -7 -5 -2 -5 12 0 14 2 19 5 13 2 -7 2 -19 0 -25z m-357 11
c0 8 3 12 6 8 10 -10 -6 -26 -21 -21 -8 4 -12 11 -9 16 4 6 10 5 15 -3 7 -12
9 -12 9 0z m115 1 c3 -5 1 -10 -4 -10 -6 0 -11 5 -11 10 0 6 2 10 4 10 3 0 8
-4 11 -10z m295 -21 c0 -14 -16 -11 -29 5 -10 12 -8 13 8 9 12 -3 21 -9 21
-14z m-370 -9 c0 -5 -7 -7 -15 -4 -8 4 -12 10 -9 15 6 11 24 2 24 -11z m-46 1
c5 -1 2 -9 -5 -18 -10 -11 -10 -14 -1 -9 6 4 12 2 12 -3 0 -13 -20 -14 -36 -3
-17 11 -13 40 5 37 9 -2 20 -4 25 -4z m271 -1 c3 -5 1 -10 -5 -10 -6 0 -9 -4
-5 -10 3 -5 13 -6 23 -3 9 3 14 3 10 -1 -15 -17 -73 -13 -91 5 -20 21 -15 24
14 9 11 -7 19 -7 19 -1 0 5 -6 12 -12 14 -7 3 -1 6 14 6 15 1 30 -3 33 -9z
m35 0 c0 -5 -2 -10 -4 -10 -3 0 -8 5 -11 10 -3 6 -1 10 4 10 6 0 11 -4 11 -10z
m-210 -30 c0 -11 -7 -20 -16 -20 -8 0 -12 -5 -9 -10 4 -6 11 -7 17 -4 7 4 8 2
4 -4 -17 -28 -76 -3 -76 32 0 15 20 4 21 -11 0 -11 3 -13 6 -5 2 6 11 12 19
12 17 0 19 17 2 23 -7 3 -3 6 10 6 16 1 22 -5 22 -19z m45 -10 c7 0 17 -6 23
-13 9 -10 4 -12 -23 -9 -19 2 -35 10 -35 16 0 17 14 30 18 17 2 -6 9 -11 17
-11z m81 -39 c-4 -5 -1 -12 4 -14 6 -3 5 -4 -2 -3 -15 3 -23 26 -8 26 6 0 9
-4 6 -9z m92 -14 c14 4 14 3 2 -5 -16 -12 -30 -7 -29 11 0 9 2 9 5 0 3 -7 13
-9 22 -6z m-318 -18 c0 -5 -4 -9 -8 -9 -5 0 -9 7 -9 15 0 8 4 12 9 9 4 -3 8
-9 8 -15z"/>
<path d="M845 1415 c-120 -42 -126 -212 -9 -261 46 -19 54 -18 54 12 0 16 -13
37 -35 58 -47 44 -47 78 1 122 25 24 34 41 32 58 -3 24 -4 24 -43 11z"/>
<path d="M916 1423 c-13 -13 -5 -54 12 -60 9 -3 25 -12 34 -20 15 -13 18 -12
34 12 15 22 15 28 3 39 -18 17 -75 36 -83 29z"/>
<path d="M1150 1400 l0 -30 65 0 65 0 0 30 0 30 -65 0 -65 0 0 -30z"/>
<path d="M1415 1419 c-93 -25 -130 -141 -73 -222 19 -26 71 -57 98 -57 23 0 9
54 -20 79 -17 15 -33 40 -36 59 -6 28 -2 37 30 67 26 25 36 42 34 58 -3 21 -6
23 -33 16z"/>
<path d="M1480 1401 c0 -19 9 -34 30 -49 l29 -22 17 26 c15 22 15 27 3 40 -8
8 -29 18 -47 23 -30 9 -32 8 -32 -18z"/>
<path d="M1693 1421 c-40 -10 -63 -38 -63 -76 0 -43 27 -69 84 -84 46 -11 72
-33 61 -51 -3 -5 -13 -10 -21 -10 -9 0 -14 -11 -14 -31 0 -29 2 -31 28 -24 65
16 96 62 73 111 -10 23 -33 36 -108 64 -32 12 -46 44 -22 52 6 2 9 15 7 29 -2
20 -7 24 -25 20z"/>
<path d="M1740 1403 c0 -26 5 -31 41 -42 23 -7 42 -11 44 -9 1 2 8 13 14 26
11 20 9 23 -16 33 -15 6 -40 13 -55 16 -26 5 -28 3 -28 -24z"/>
<path d="M1050 1280 l0 -140 35 0 35 0 0 140 0 140 -35 0 -35 0 0 -140z"/>
<path d="M1990 1412 c0 -5 11 -35 24 -68 43 -106 43 -107 7 -102 -26 4 -32 1
-40 -24 l-10 -28 53 0 c49 0 54 -2 60 -25 5 -21 12 -25 42 -25 42 0 44 -9 -28
161 -48 113 -52 119 -79 119 -16 0 -29 -4 -29 -8z"/>
<path d="M1954 1385 c-4 -11 -29 -69 -55 -130 l-48 -110 31 -3 c17 -2 34 0 39
5 12 13 69 162 69 181 -1 9 -7 31 -14 47 -13 28 -14 28 -22 10z"/>
<path d="M1150 1285 c0 -24 3 -25 55 -25 52 0 55 1 55 25 0 24 -3 25 -55 25
-52 0 -55 -1 -55 -25z"/>
<path d="M1621 1212 c-17 -35 -1 -49 74 -68 22 -5 25 -3 25 22 0 24 -7 32 -44
50 l-45 20 -10 -24z"/>
<path d="M938 1212 c-20 -12 -28 -25 -28 -44 0 -32 7 -34 54 -14 44 18 52 33
30 57 -20 22 -21 22 -56 1z"/>
<path d="M1503 1213 c-15 -10 -23 -26 -23 -45 0 -26 3 -29 23 -23 28 9 67 33
67 43 -1 12 -27 42 -36 41 -5 0 -19 -7 -31 -16z"/>
<path d="M1150 1170 l0 -30 65 0 65 0 0 30 0 30 -65 0 -65 0 0 -30z"/>
<path d="M320 1180 c0 -5 5 -10 10 -10 6 0 10 5 10 10 0 6 -4 10 -10 10 -5 0
-10 -4 -10 -10z"/>
<path d="M348 1109 l4 -48 -134 -4 c-73 -1 337 -3 912 -2 l1045 0 -902 2 -903
3 0 48 c0 32 -4 49 -12 49 -9 0 -12 -15 -10 -48z"/>
<path d="M94 968 c-4 -7 2 -18 14 -26 29 -19 28 -35 0 -27 -18 6 -20 4 -12 -5
7 -6 20 -10 30 -8 27 5 30 35 5 43 -27 8 -27 29 -1 22 11 -3 20 -1 20 4 0 13
-48 11 -56 -3z"/>
<path d="M228 940 c-17 -40 -13 -51 10 -28 10 10 17 10 32 0 29 -18 30 -16 12
28 -9 22 -21 40 -27 40 -5 0 -18 -18 -27 -40z m36 5 c3 -9 0 -15 -9 -15 -9 0
-12 6 -9 15 4 8 7 15 9 15 2 0 5 -7 9 -15z"/>
<path d="M360 940 c0 -22 5 -40 10 -40 6 0 10 12 10 26 l0 27 21 -27 c28 -35
34 -33 34 14 0 22 -3 40 -7 40 -5 0 -8 -12 -8 -27 l-1 -28 -20 28 c-28 37 -39
34 -39 -13z"/>
<path d="M513 940 c0 -25 2 -35 4 -22 2 12 2 32 0 45 -2 12 -4 2 -4 -23z"/>
<path d="M598 973 c6 -2 12 -20 12 -39 0 -19 5 -34 10 -34 6 0 10 15 10 34 0
24 5 36 18 39 9 3 -1 5 -23 5 -22 0 -34 -2 -27 -5z"/>
<path d="M718 940 c-17 -40 -13 -51 10 -28 10 10 17 10 32 0 29 -18 30 -16 13
28 -9 22 -21 40 -27 40 -6 0 -19 -18 -28 -40z m36 5 c3 -9 0 -15 -9 -15 -9 0
-12 6 -9 15 4 8 7 15 9 15 2 0 5 -7 9 -15z"/>
<path d="M848 973 c6 -2 12 -20 12 -39 0 -19 5 -34 10 -34 6 0 10 15 10 34 0
19 6 37 13 39 6 3 -4 5 -23 5 -19 0 -29 -2 -22 -5z"/>
<path d="M1065 950 c-21 -40 -19 -53 5 -38 15 10 22 10 32 0 22 -22 26 -12 11
28 -9 22 -20 40 -24 40 -5 0 -15 -13 -24 -30z m35 -11 c0 -5 -7 -9 -15 -9 -9
0 -12 6 -9 15 6 15 24 11 24 -6z"/>
<path d="M1190 940 c0 -22 5 -40 10 -40 6 0 10 8 10 18 0 9 3 27 6 40 5 16 2
22 -10 22 -12 0 -16 -10 -16 -40z"/>
<path d="M1251 953 c-10 -22 -14 -24 -23 -12 -8 11 -9 10 -4 -4 3 -10 6 -21 6
-23 0 -14 20 0 26 19 8 21 8 21 15 -8 6 -27 7 -26 8 13 1 48 -10 54 -28 15z"/>
<path d="M1360 941 c0 -39 2 -41 30 -41 29 0 30 2 28 38 -3 32 -7 37 -31 40
-25 3 -27 1 -27 -37z m40 19 c0 -5 -7 -10 -15 -10 -8 0 -15 5 -15 10 0 6 7 10
15 10 8 0 15 -4 15 -10z m4 -41 c-7 -11 -34 -12 -34 -1 0 14 11 21 26 15 8 -3
11 -9 8 -14z"/>
<path d="M1490 940 c0 -22 5 -40 10 -40 6 0 10 18 10 40 0 22 -4 40 -10 40 -5
0 -10 -18 -10 -40z"/>
<path d="M1580 940 c0 -39 1 -40 33 -39 23 1 26 3 10 6 -13 2 -23 8 -23 13 0
4 10 11 23 15 l22 8 -22 4 c-13 2 -23 8 -23 13 0 5 10 11 23 13 16 3 13 5 -10
6 -32 1 -33 0 -33 -39z"/>
<path d="M1710 940 c0 -22 5 -40 10 -40 6 0 10 12 10 26 l0 25 25 -28 24 -28
0 45 c-1 38 -2 40 -8 15 l-6 -29 -18 27 c-25 38 -37 34 -37 -13z"/>
<path d="M1865 967 c12 -10 16 -22 13 -40 -3 -15 -1 -27 3 -27 5 0 9 15 9 34
0 24 5 36 18 39 9 3 -1 5 -22 6 -36 1 -38 0 -21 -12z"/>
<path d="M1985 950 c-21 -40 -19 -53 5 -38 15 10 22 10 32 0 22 -22 26 -12 11
28 -9 22 -20 40 -24 40 -5 0 -15 -13 -24 -30z m35 -11 c0 -5 -7 -9 -15 -9 -9
0 -12 6 -9 15 6 15 24 11 24 -6z"/>
<path d="M2110 940 c0 -39 1 -40 33 -39 23 1 26 3 10 6 -19 4 -23 11 -23 39 0
19 -4 34 -10 34 -5 0 -10 -18 -10 -40z"/>
</g>
</svg>
